<?xml version="1.0" encoding="iso-8859-1"?>
<!-- Generator: Adobe Illustrator 19.0.0, SVG Export Plug-In . SVG Version: 6.00 Build 0)  -->
<svg version="1.1" id="Capa_1" xmlns="http://www.w3.org/2000/svg" xmlns:xlink="http://www.w3.org/1999/xlink" x="0px" y="0px"
	 viewBox="0 0 511.999 511.999" style="enable-background:new 0 0 511.999 511.999;" xml:space="preserve" fill="#fff"> 
<g>
	<g>
		<path d="M416.322,120.239c-4.142,0-7.5,3.358-7.5,7.5V464.42c0,0.285-0.231,0.516-0.516,0.516H143.774c-4.142,0-7.5,3.358-7.5,7.5
			c0,4.142,3.358,7.5,7.5,7.5h264.532c8.556,0,15.516-6.96,15.516-15.516V127.739C423.822,123.597,420.464,120.239,416.322,120.239z
			"/>
	</g>
</g>
<g>
	<g>
		<path d="M440.37,32.064h-69.039L346.16,6.893C341.715,2.448,335.806,0,329.52,0H71.628c-8.556,0-15.516,6.96-15.516,15.516
			v448.903c0,8.556,6.96,15.516,15.516,15.516h16.548v16.548c0,8.556,6.96,15.516,15.516,15.516H440.37
			c8.556,0,15.516-6.96,15.516-15.516V47.581C455.886,39.025,448.926,32.064,440.37,32.064z M335.644,17.59l70.587,70.587H336.16
			c-0.285,0-0.516-0.231-0.516-0.516V17.59z M440.886,496.484c0,0.285-0.231,0.516-0.516,0.516H103.692
			c-0.285,0-0.516-0.231-0.516-0.516v-16.548h8.53c4.142,0,7.5-3.358,7.5-7.5c0-4.142-3.358-7.5-7.5-7.5H71.628
			c-0.285,0-0.516-0.231-0.516-0.516V15.516c0-0.285,0.231-0.516,0.516-0.516h249.016v72.661c0,8.556,6.96,15.516,15.516,15.516
			h80.162c4.142,0,7.5-3.358,7.5-7.5v-1.375c0-6.285-2.448-12.195-6.893-16.64l-30.598-30.598h54.039
			c0.285,0,0.516,0.231,0.516,0.516V496.484z"/>
	</g>
</g>
<g>
	<g>
		<path d="M205.189,85.679c-2.929-2.929-7.678-2.929-10.606,0l-42.429,42.429c-0.202,0.201-0.529,0.201-0.73,0l-16.914-16.914h13.02
			c4.142,0,7.5-3.358,7.5-7.5c0-4.142-3.358-7.5-7.5-7.5h-19.79c-2.398,0-4.662,0.563-6.692,1.539l-4.037-4.037
			c-2.929-2.929-7.678-2.929-10.606,0c-2.929,2.929-2.929,7.678,0,10.606l5.896,5.896c-0.048,0.497-0.076,1.001-0.076,1.511v48.097
			c0,8.556,6.96,15.516,15.516,15.516h48.097c8.556,0,15.516-6.96,15.516-15.516V110.12l13.835-13.835
			C208.118,93.356,208.118,88.607,205.189,85.679z M176.354,159.807c0,0.285-0.231,0.516-0.516,0.516h-48.097
			c-0.285,0-0.516-0.231-0.516-0.516V125.12l13.593,13.593c3.025,3.025,6.998,4.538,10.972,4.538c3.973,0,7.946-1.513,10.971-4.538
			l13.593-13.593V159.807z"/>
	</g>
</g>
<g>
	<g>
		<path d="M175.838,200.403h-48.097c-8.556,0-15.516,6.96-15.516,15.516v48.097c0,8.556,6.96,15.516,15.516,15.516h48.097
			c8.556,0,15.516-6.96,15.516-15.516v-48.097C191.354,207.364,184.394,200.403,175.838,200.403z M176.354,264.016
			c0,0.285-0.231,0.516-0.516,0.516h-48.097c-0.285,0-0.516-0.231-0.516-0.516v-48.097c0-0.285,0.231-0.516,0.516-0.516h48.097
			c0.285,0,0.516,0.231,0.516,0.516V264.016z"/>
	</g>
</g>
<g>
	<g>
		<path d="M175.838,304.613h-48.097c-8.556,0-15.516,6.96-15.516,15.516v48.097c0,8.556,6.96,15.516,15.516,15.516h48.097
			c8.556,0,15.516-6.961,15.516-15.516v-48.097C191.354,311.573,184.394,304.613,175.838,304.613z M176.354,368.226
			c0,0.285-0.231,0.516-0.516,0.516h-48.097c-0.285,0-0.516-0.232-0.516-0.516v-48.097c0-0.285,0.231-0.516,0.516-0.516h48.097
			c0.285,0,0.516,0.231,0.516,0.516V368.226z"/>
	</g>
</g>
<g>
	<g>
		<path d="M296.08,112.226h-72.145c-4.142,0-7.5,3.358-7.5,7.5c0,4.142,3.357,7.5,7.5,7.5h72.145c4.142,0,7.5-3.358,7.5-7.5
			C303.58,115.584,300.222,112.226,296.08,112.226z"/>
	</g>
</g>
<g>
	<g>
		<path d="M360.209,144.291H223.935c-4.142,0-7.5,3.358-7.5,7.5c0,4.142,3.357,7.5,7.5,7.5h136.274c4.142,0,7.5-3.358,7.5-7.5
			C367.709,147.649,364.352,144.291,360.209,144.291z"/>
	</g>
</g>
<g>
	<g>
		<path d="M296.08,216.436h-72.145c-4.142,0-7.5,3.358-7.5,7.5c0,4.142,3.357,7.5,7.5,7.5h72.145c4.142,0,7.5-3.358,7.5-7.5
			C303.58,219.794,300.222,216.436,296.08,216.436z"/>
	</g>
</g>
<g>
	<g>
		<path d="M360.209,248.5H223.935c-4.142,0-7.5,3.358-7.5,7.5c0,4.142,3.357,7.5,7.5,7.5h136.274c4.142,0,7.5-3.358,7.5-7.5
			C367.709,251.858,364.352,248.5,360.209,248.5z"/>
	</g>
</g>
<g>
	<g>
		<path d="M296.08,320.645h-72.145c-4.142,0-7.5,3.358-7.5,7.5c0,4.142,3.357,7.5,7.5,7.5h72.145c4.142,0,7.5-3.358,7.5-7.5
			C303.58,324.003,300.222,320.645,296.08,320.645z"/>
	</g>
</g>
<g>
	<g>
		<path d="M360.209,352.709H223.935c-4.142,0-7.5,3.358-7.5,7.5c0,4.142,3.357,7.5,7.5,7.5h136.274c4.142,0,7.5-3.358,7.5-7.5
			C367.709,356.067,364.352,352.709,360.209,352.709z"/>
	</g>
</g>
<g>
</g>
<g>
</g>
<g>
</g>
<g>
</g>
<g>
</g>
<g>
</g>
<g>
</g>
<g>
</g>
<g>
</g>
<g>
</g>
<g>
</g>
<g>
</g>
<g>
</g>
<g>
</g>
<g>
</g>
</svg>
