<svg
    id="super-user-svg"
 width="781" height="533" viewBox="0 0 781 533" fill="none" xmlns="http://www.w3.org/2000/svg">
<g id="superUsergrant">
<g id="plant">
<path id="Vector" d="M754.516 506.271C754.392 506.064 751.458 501.08 750.441 490.73C749.509 481.234 750.108 465.229 758.265 442.902C773.719 400.606 754.704 366.479 754.51 366.139L755.448 365.586C759.109 372.715 761.754 380.339 763.302 388.228C767.132 406.597 765.737 425.696 759.282 443.287C743.855 485.511 755.324 505.499 755.442 505.696L754.516 506.271Z" fill="#E6E6E6"/>
<path id="Vector_2" d="M748.474 363.656C752.366 363.656 755.521 360.445 755.521 356.484C755.521 352.524 752.366 349.313 748.474 349.313C744.582 349.313 741.427 352.524 741.427 356.484C741.427 360.445 744.582 363.656 748.474 363.656Z" fill="#E6E6E6"/>
<path id="Vector_3" d="M770.7 390.135C774.592 390.135 777.748 386.925 777.748 382.964C777.748 379.003 774.592 375.792 770.7 375.792C766.808 375.792 763.653 379.003 763.653 382.964C763.653 386.925 766.808 390.135 770.7 390.135Z" fill="#E6E6E6"/>
<path id="Vector_4" d="M755.521 407.788C759.413 407.788 762.569 404.578 762.569 400.617C762.569 396.656 759.413 393.445 755.521 393.445C751.629 393.445 748.474 396.656 748.474 400.617C748.474 404.578 751.629 407.788 755.521 407.788Z" fill="#E6E6E6"/>
<path id="Vector_5" d="M773.953 422.683C777.845 422.683 781 419.472 781 415.512C781 411.551 777.845 408.34 773.953 408.34C770.061 408.34 766.905 411.551 766.905 415.512C766.905 419.472 770.061 422.683 773.953 422.683Z" fill="#E6E6E6"/>
<path id="Vector_6" d="M750.1 445.853C753.992 445.853 757.147 442.642 757.147 438.681C757.147 434.72 753.992 431.51 750.1 431.51C746.208 431.51 743.053 434.72 743.053 438.681C743.053 442.642 746.208 445.853 750.1 445.853Z" fill="#E6E6E6"/>
<path id="Vector_7" d="M758.774 506.535C758.774 506.535 751.726 488.882 772.868 475.642L758.774 506.535Z" fill="#E6E6E6"/>
<path id="Vector_8" d="M750.107 506.215C750.107 506.215 746.899 487.442 722.075 487.603L750.107 506.215Z" fill="#E6E6E6"/>
</g>
<path id="Vector_9" d="M648.233 533C721.151 533 780.263 524.946 780.263 515.011C780.263 505.076 721.151 497.022 648.233 497.022C575.315 497.022 516.203 505.076 516.203 515.011C516.203 524.946 575.315 533 648.233 533Z" fill="#E6E6E6"/>
<path id="Vector_10" d="M584.338 293.751C584.338 293.751 581.972 310.608 590.254 309.404C598.536 308.2 596.17 293.751 596.17 293.751H584.338Z" fill="#FFB8B8"/>
<path id="Vector_11" d="M576.055 450.279L570.139 469.544L584.338 475.564L590.254 450.279H576.055Z" fill="#FFB8B8"/>
<path id="Vector_12" d="M680.178 462.859L679.95 483.041L695.25 484.656L693.777 458.708L680.178 462.859Z" fill="#FFB8B8"/>
<path id="Vector_13" d="M618.651 204.651L689.643 207.059L694.377 369.607L709.758 463.523L671.896 470.748L639.949 314.22L602.086 456.299L567.773 452.687L618.651 204.651Z" fill="#2F2E41"/>
<path id="Vector_14" d="M578.422 469.544C578.422 469.544 572.506 458.707 567.773 464.727C563.04 470.748 544.109 493.625 544.109 493.625C544.109 493.625 522.811 515.298 557.124 512.89C557.124 512.89 567.773 512.89 570.139 505.665C570.139 505.665 590.254 502.053 590.254 496.033C590.254 490.013 585.895 468.907 585.895 468.907L578.422 469.544Z" fill="#2F2E41"/>
<path id="Vector_15" d="M688.46 480.38C688.46 480.38 682.544 469.544 677.811 475.564C673.078 481.584 654.147 504.461 654.147 504.461C654.147 504.461 632.849 526.134 667.162 523.726C667.162 523.726 677.811 523.726 680.178 516.502C680.178 516.502 700.292 512.89 700.292 506.869C700.292 500.849 695.934 479.744 695.934 479.744L688.46 480.38Z" fill="#2F2E41"/>
<path id="Vector_16" d="M700.884 118.561L658.288 117.357L633.441 146.255C633.441 146.255 610.96 169.132 621.609 185.988V213.682H690.235L707.983 166.723L700.884 118.561Z" fill="#D0CDE1"/>
<path id="Vector_17" d="M696.743 188.999C696.743 188.999 672.426 137.574 685.768 118.134L690.593 106.521L703.842 103.51V107.123L738.155 110.735L729.872 170.938L722.773 309.404L655.922 296.762L694.968 212.478L696.743 188.999Z" fill="#575A89"/>
<path id="Vector_18" d="M664.204 112.541L625.75 138.428C625.75 138.428 605.636 179.366 600.903 198.631C596.17 217.896 565.407 297.364 565.407 297.364H602.086L651.781 134.816L667.754 118.561L664.204 112.541Z" fill="#575A89"/>
<path id="Vector_19" d="M718.04 192.611L696.743 196.223C696.743 196.223 676.628 208.263 681.361 222.712C686.094 237.161 700.292 207.059 700.292 207.059L725.14 204.651L718.04 192.611Z" fill="#FFB8B8"/>
<path id="Vector_20" d="M728.69 115.551L738.155 110.735L778.384 192.611L731.055 215.488L712.125 188.999L736.971 181.774L719.223 151.673L728.69 115.551Z" fill="#575A89"/>
<g id="head">
<path id="Vector_21" d="M663.364 101.905L673.029 99.4942C676.718 99.4942 680.361 98.6597 683.694 97.051C687.027 95.4423 689.967 93.0997 692.301 90.1927C694.636 87.2857 696.306 83.887 697.191 80.2425C698.075 76.598 698.153 72.7989 697.418 69.1202V69.1202C697.418 60.3404 693.991 51.9202 687.89 45.7119C681.789 39.5036 673.515 36.0159 664.887 36.0159H664.887C660.615 36.0159 656.385 36.8721 652.438 38.5358C648.491 40.1994 644.905 42.6379 641.884 45.7119C638.863 48.7859 636.467 52.4353 634.832 56.4517C633.197 60.4681 632.356 64.7728 632.356 69.1202C631.111 73.5499 631.031 78.2348 632.124 82.7058C633.217 87.1769 635.445 91.2774 638.585 94.597C641.725 97.9165 645.666 100.339 650.015 101.621C654.363 102.904 658.967 103.001 663.364 101.905Z" fill="#2F2E41"/>
<path id="Vector_22" d="M679.586 87.2554L694.377 113.143L690.235 125.786L668.938 122.173L658.288 99.296L679.586 87.2554Z" fill="#FFB8B8"/>
<path id="Vector_23" d="M695.94 59.5887C704.467 59.5887 711.38 52.554 711.38 43.8762C711.38 35.1984 704.467 28.1637 695.94 28.1637C687.412 28.1637 680.499 35.1984 680.499 43.8762C680.499 52.554 687.412 59.5887 695.94 59.5887Z" fill="#2F2E41"/>
<path id="Vector_24" d="M681.683 35.4479C681.681 33.1236 682.187 30.8281 683.164 28.727C684.14 26.6258 685.563 24.7713 687.329 23.2974C689.094 21.8234 691.16 20.7667 693.376 20.2035C695.592 19.6402 697.903 19.5845 700.143 20.0403C698.166 19.0928 696.014 18.5833 693.829 18.5454C691.644 18.5076 689.476 18.9422 687.469 19.8207C685.462 20.6991 683.661 22.0013 682.185 23.6411C680.709 25.2809 679.592 27.2209 678.908 29.3327C678.224 31.4446 677.989 33.6802 678.218 35.8915C678.446 38.1029 679.134 40.2397 680.235 42.1604C681.335 44.0812 682.825 45.7422 684.603 47.0336C686.382 48.3249 688.41 49.2172 690.553 49.6513C687.902 48.3847 685.66 46.3764 684.09 43.8613C682.519 41.3461 681.684 38.428 681.683 35.4479Z" fill="#2F2E41"/>
<path id="Vector_25" d="M657.105 106.521C672.135 106.521 684.319 94.1219 684.319 78.8273C684.319 63.5327 672.135 51.134 657.105 51.134C642.075 51.134 629.891 63.5327 629.891 78.8273C629.891 94.1219 642.075 106.521 657.105 106.521Z" fill="#FFB8B8"/>
<path id="Vector_26" d="M674.829 45.9994L654.009 42.1258L638.013 52.3563C634.08 54.8714 630.939 58.4816 628.961 62.7585C626.984 67.0355 626.253 71.7999 626.856 76.4866L642.884 72.3306L646.463 63.1651L650.748 70.2918L661.273 67.5627L685.502 98.0923L687.444 68.6002L674.829 45.9994Z" fill="#2F2E41"/>
</g>
<g id="user-1">
<path id="border" d="M127.302 170.608H42.7542V256.645H127.302V170.608Z" fill="#E6E6E6"/>
<g id="user-color">
<path id="tick-box" d="M112.383 186.418H58.5797V241.169H112.383V186.418Z" fill="#FB5674"/>
<path id="user-box" d="M170.056 0H0V120.257H170.056V0Z" fill="#FB5674"/>
</g>
<path id="user" d="M85.0279 23.4647C77.9021 23.4647 70.9363 25.615 65.0114 29.6437C59.0865 33.6723 54.4686 39.3984 51.7417 46.0978C49.0148 52.7972 48.3013 60.169 49.6914 67.2811C51.0816 74.3931 54.513 80.926 59.5518 86.0535C64.5905 91.181 71.0102 94.6728 77.9991 96.0875C84.988 97.5022 92.2322 96.7761 98.8156 94.0011C105.399 91.2261 111.026 86.5269 114.985 80.4976C118.944 74.4683 121.057 67.3797 121.057 60.1283C121.029 50.4133 117.224 41.1043 110.473 34.2347C103.723 27.3651 94.5748 23.4932 85.0279 23.4647V23.4647ZM85.0279 34.4638C87.1657 34.4638 89.2554 35.1089 91.0329 36.3175C92.8103 37.5261 94.1957 39.2439 95.0138 41.2537C95.8319 43.2635 96.0459 45.4751 95.6289 47.6087C95.2118 49.7423 94.1824 51.7022 92.6708 53.2404C91.1592 54.7787 89.2333 55.8262 87.1366 56.2506C85.0399 56.675 82.8667 56.4572 80.8916 55.6247C78.9166 54.7922 77.2285 53.3824 76.0409 51.5737C74.8532 49.7649 74.2193 47.6383 74.2193 45.4629C74.2288 42.5487 75.3707 39.7567 77.3956 37.6961C79.4206 35.6355 82.1642 34.4735 85.0279 34.4638V34.4638ZM85.0279 87.4145C80.7581 87.3947 76.5575 86.3151 72.7905 84.2694C69.0235 82.2237 65.8038 79.2737 63.4107 75.6752C63.5839 68.3425 77.8222 64.3059 85.0279 64.3059C92.2337 64.3059 106.472 68.3425 106.645 75.6752C104.249 79.271 101.029 82.219 97.2627 84.2643C93.4963 86.3097 89.297 87.391 85.0279 87.4146V87.4145Z" fill="white"/>
<path id="tick" d="M82.1142 225.463L72.7834 213.254L78.2094 208.959L82.6268 214.739L97.5525 198.707L102.543 203.518L82.1142 225.463Z" fill="white"/>
</g>
<path id="Vector_27" d="M671.348 82.1135C672.883 81.5455 673.313 78.8052 672.309 75.9928C671.304 73.1805 669.245 71.3611 667.71 71.929C666.174 72.497 665.744 75.2373 666.749 78.0497C667.753 80.862 669.813 82.6814 671.348 82.1135Z" fill="#FFB8B8"/>
<g id="user-2">
<path id="border_2" d="M296.375 170.608H211.828V256.645H296.375V170.608Z" fill="#E6E6E6"/>
<g id="user-color">
<path id="tick-box_2" d="M281.456 186.418H227.653V241.169H281.456V186.418Z" fill="#FB5674"/>
<path id="user-box_2" d="M339.13 0H169.074V120.257H339.13V0Z" fill="#FB5674"/>
</g>
<path id="user_2" d="M254.102 23.4647C246.976 23.4647 240.01 25.615 234.085 29.6437C228.16 33.6723 223.542 39.3984 220.815 46.0978C218.088 52.7972 217.375 60.169 218.765 67.2811C220.155 74.3931 223.587 80.926 228.625 86.0535C233.664 91.181 240.084 94.6728 247.073 96.0875C254.062 97.5022 261.306 96.7761 267.889 94.0011C274.473 91.2261 280.1 86.5269 284.058 80.4976C288.017 74.4683 290.13 67.3797 290.13 60.1283C290.102 50.4133 286.298 41.1043 279.547 34.2347C272.796 27.3651 263.648 23.4932 254.102 23.4647V23.4647ZM254.102 34.4638C256.239 34.4638 258.329 35.1089 260.107 36.3175C261.884 37.5261 263.269 39.2439 264.088 41.2537C264.906 43.2635 265.12 45.4751 264.703 47.6087C264.286 49.7423 263.256 51.7022 261.745 53.2404C260.233 54.7787 258.307 55.8262 256.21 56.2506C254.114 56.675 251.94 56.4572 249.965 55.6247C247.99 54.7922 246.302 53.3824 245.115 51.5737C243.927 49.7649 243.293 47.6383 243.293 45.4629C243.303 42.5487 244.444 39.7567 246.469 37.6961C248.494 35.6355 251.238 34.4735 254.102 34.4638V34.4638ZM254.102 87.4145C249.832 87.3947 245.631 86.3151 241.864 84.2694C238.097 82.2237 234.878 79.2737 232.484 75.6752C232.658 68.3425 246.896 64.3059 254.102 64.3059C261.307 64.3059 275.546 68.3425 275.719 75.6752C273.323 79.271 270.103 82.219 266.336 84.2643C262.57 86.3097 258.371 87.391 254.102 87.4146V87.4145Z" fill="white"/>
<path id="tick_2" d="M251.188 225.463L241.857 213.254L247.283 208.959L251.701 214.739L266.626 198.707L271.617 203.518L251.188 225.463Z" fill="white"/>
</g>
<g id="blankUser">
<path id="Vector_28" d="M508.32 0H338.264V120.257H508.32V0Z" fill="#ececec"/>
<path id="Vector_29" d="M423.292 23.4647C416.166 23.4647 409.2 25.615 403.275 29.6437C397.351 33.6723 392.733 39.3984 390.006 46.0978C387.279 52.7972 386.565 60.169 387.955 67.2811C389.346 74.3931 392.777 80.926 397.816 86.0535C402.854 91.181 409.274 94.6728 416.263 96.0875C423.252 97.5022 430.496 96.7761 437.08 94.0011C443.663 91.2261 449.29 86.5269 453.249 80.4976C457.208 74.4683 459.321 67.3797 459.321 60.1283C459.293 50.4133 455.488 41.1043 448.737 34.2347C441.987 27.3651 432.839 23.4932 423.292 23.4647V23.4647ZM423.292 34.4638C425.43 34.4638 427.519 35.1089 429.297 36.3175C431.074 37.5261 432.46 39.2439 433.278 41.2537C434.096 43.2635 434.31 45.4751 433.893 47.6087C433.476 49.7423 432.446 51.7022 430.935 53.2404C429.423 54.7787 427.497 55.8262 425.401 56.2506C423.304 56.675 421.131 56.4572 419.156 55.6247C417.181 54.7922 415.493 53.3824 414.305 51.5737C413.117 49.7649 412.483 47.6383 412.483 45.4629C412.493 42.5487 413.635 39.7567 415.66 37.6961C417.685 35.6355 420.428 34.4735 423.292 34.4638ZM423.292 87.4145C419.022 87.3947 414.822 86.3152 411.055 84.2695C407.288 82.2238 404.068 79.2737 401.675 75.6752C401.848 68.3425 416.086 64.3059 423.292 64.3059C430.498 64.3059 444.736 68.3425 444.909 75.6752C442.513 79.271 439.293 82.219 435.527 84.2643C431.76 86.3097 427.561 87.391 423.292 87.4146V87.4145Z" fill="white"/>
<path id="Vector_30" d="M465.566 170.608H381.018V256.645H465.566V170.608Z" fill="#E6E6E6"/>
<path id="Vector_31" d="M450.647 186.418H396.844V241.169H450.647V186.418Z" fill="#ececec"/>
<path id="Vector_32" d="M420.105 225.463L410.775 213.254L416.201 208.959L420.62 214.739L435.544 198.707L440.535 203.518L420.105 225.463Z" fill="#ffff"/>
</g>
</g>
</svg>
