<svg id="svg-teacher" width="813" height="604" viewBox="0 0 813 604" fill="none" xmlns="http://www.w3.org/2000/svg">
<g id="svg-teacher-g">
<path id="Vector" d="M237.534 0L108.052 67.0538C110.266 70.6982 111.692 74.7304 112.247 78.9115C112.801 83.0926 112.472 87.3376 111.279 91.3948C110.086 95.4521 108.053 99.2391 105.301 102.531C102.549 105.824 99.1335 108.555 95.2573 110.562C91.3812 112.569 87.1231 113.812 82.7353 114.217C78.3475 114.622 73.9193 114.181 69.7131 112.92C65.5068 111.659 61.6082 109.603 58.2481 106.875C54.888 104.147 52.1349 100.802 50.1518 97.038L6.0022 119.901L120.363 321.759L351.895 201.857L237.534 0Z" fill="#F2F2F2"/>
<path id="Vector_2" d="M562.666 540.388L702.663 496.729C701.172 492.763 700.528 488.551 700.771 484.343C701.013 480.134 702.137 476.016 704.075 472.23C706.013 468.445 708.726 465.07 712.053 462.305C715.38 459.541 719.254 457.443 723.445 456.136C727.636 454.829 732.059 454.339 736.451 454.696C740.843 455.054 745.116 456.25 749.016 458.215C752.916 460.18 756.363 462.873 759.154 466.135C761.946 469.397 764.023 473.162 765.265 477.206L813 462.319L738.538 244.069L488.205 322.138L562.666 540.388Z" fill="#F2F2F2"/>
<g id="blueBalls">
<path id="Vector_3" d="M77.6003 108.425C92.3631 108.425 104.331 96.9827 104.331 82.8684C104.331 68.7541 92.3631 57.3123 77.6003 57.3123C62.8375 57.3123 50.8699 68.7541 50.8699 82.8684C50.8699 96.9827 62.8375 108.425 77.6003 108.425Z" fill="#6C63FF"/>
<path id="Vector_4" d="M735.596 511.973C750.359 511.973 762.326 500.531 762.326 486.417C762.326 472.302 750.359 460.861 735.596 460.861C720.833 460.861 708.866 472.302 708.866 486.417C708.866 500.531 720.833 511.973 735.596 511.973Z" fill="#6C63FF"/>
</g>
<path id="Vector_5" d="M741.112 119.735H94.741V400.491H741.112V119.735Z" fill="#3F3D56"/>
<path id="Vector_6" d="M730.448 129.93H105.404V384.806H730.448V129.93Z" fill="white"/>
<path id="Vector_7" d="M666.878 372.651H606.178V392.257H666.878V372.651Z" fill="#3F3D56"/>
<path id="Vector_8" d="M602.897 387.551H558.602V393.041H602.897V387.551Z" fill="#6C63FF"/>
<path id="Vector_9" d="M249.772 233.449C253.849 233.449 257.154 230.289 257.154 226.391C257.154 222.493 253.849 219.333 249.772 219.333C245.694 219.333 242.389 222.493 242.389 226.391C242.389 230.289 245.694 233.449 249.772 233.449Z" fill="#6C63FF"/>
<path id="Vector_10" d="M318.674 233.449C322.751 233.449 326.056 230.289 326.056 226.391C326.056 222.493 322.751 219.333 318.674 219.333C314.597 219.333 311.292 222.493 311.292 226.391C311.292 230.289 314.597 233.449 318.674 233.449Z" fill="#6C63FF"/>
<path id="Vector_11" d="M431.871 250.702C435.948 250.702 439.253 247.542 439.253 243.644C439.253 239.746 435.948 236.586 431.871 236.586C427.794 236.586 424.489 239.746 424.489 243.644C424.489 247.542 427.794 250.702 431.871 250.702Z" fill="#6C63FF"/>
<path id="Vector_12" d="M591.003 209.138C595.08 209.138 598.385 205.978 598.385 202.08C598.385 198.182 595.08 195.022 591.003 195.022C586.926 195.022 583.621 198.182 583.621 202.08C583.621 205.978 586.926 209.138 591.003 209.138Z" fill="#6C63FF"/>
<path id="Vector_13" d="M513.898 236.586C517.975 236.586 521.28 233.426 521.28 229.528C521.28 225.63 517.975 222.47 513.898 222.47C509.821 222.47 506.515 225.63 506.515 229.528C506.515 233.426 509.821 236.586 513.898 236.586Z" fill="#6C63FF"/>
<g id="board-lines">
<path id="Vector (Stroke)" fill-rule="evenodd" clip-rule="evenodd" d="M528.896 201.08H638.578V203.08H530.07L491.35 272.391L394.737 227.391H156.261V225.391H395.18L432.388 242.721L490.51 269.794L528.896 201.08Z" fill="#3F3D56"/>
<path id="Vector (Stroke)_2" fill-rule="evenodd" clip-rule="evenodd" d="M249.206 226.796L251.035 225.987L268.468 265.387H311.292V267.387H267.166L249.206 226.796Z" fill="#3F3D56"/>
<path id="Vector (Stroke)_3" fill-rule="evenodd" clip-rule="evenodd" d="M376.669 194.022H419.567V196.022H377.157L316.926 227.279L316.004 225.504L376.669 194.022Z" fill="#3F3D56"/>
<path id="Vector (Stroke)_4" fill-rule="evenodd" clip-rule="evenodd" d="M430.873 243.715L432.868 243.574L437.724 312.441H479.446V314.441H435.86L430.873 243.715Z" fill="#3F3D56"/>
<path id="Vector (Stroke)_5" fill-rule="evenodd" clip-rule="evenodd" d="M464.113 194.022H511.437V196.022H470.171L514.616 228.955L513.425 230.561L464.113 194.022Z" fill="#3F3D56"/>
<path id="Vector (Stroke)_6" fill-rule="evenodd" clip-rule="evenodd" d="M590.85 202.877L592.059 201.283L637.274 235.586H679.592V237.586H636.601L590.85 202.877Z" fill="#3F3D56"/>
<path id="Vector (Stroke)_7" fill-rule="evenodd" clip-rule="evenodd" d="M311.292 273.661H268.638V271.661H311.292V273.661Z" fill="#3F3D56"/>
</g>
<path id="Outline-ball" d="M664.041 70.8049C670.726 70.8049 676.145 65.624 676.145 59.233C676.145 52.8421 670.726 47.6612 664.041 47.6612C657.356 47.6612 651.938 52.8421 651.938 59.233C651.938 65.624 657.356 70.8049 664.041 70.8049Z" stroke="#3F3D56" stroke-width="2" stroke-miterlimit="10"/>
<path id="Vector_14" d="M124.681 604C193.54 604 249.361 594.169 249.361 582.041C249.361 569.914 193.54 560.083 124.681 560.083C55.8214 560exam.svg.083 0 569.914 0 582.041C0 594.169 55.8214 604 124.681 604Z" fill="#F2F2F2"/>
<path id="Vector_15" d="M210.308 387.144L188.064 397.873L189.504 400.614L211.746 389.885L210.308 387.144Z" fill="#6C63FF"/>
<path id="Vector_16" d="M206.691 367.187L205.692 372.92C205.692 372.92 207.191 412.568 196.199 400.148C185.207 387.728 192.701 371.009 192.701 371.009L195.699 366.232L206.691 367.187Z" fill="#FEE2B3"/>
<path id="Vector_17" d="M142.737 183.754C142.737 183.754 140.739 203.817 139.74 204.773C138.74 205.728 154.729 223.88 154.729 223.88L168.719 211.46C168.719 211.46 167.719 193.308 170.717 189.487C173.715 185.665 142.737 183.754 142.737 183.754Z" fill="#FEE2B3"/>
<path id="Vector_18" opacity="0.1" d="M143.043 184C143.043 184 141.044 204.063 140.045 205.018C139.046 205.974 155.034 224.126 155.034 224.126L169.024 211.706C169.024 211.706 168.025 193.554 171.023 189.732C174.02 185.911 143.043 184 143.043 184Z" fill="black" fill-opacity="0.3"/>
<path id="Vector_19" d="M105.765 549.665V566.862L98.7694 567.818L88.7769 564.952L91.7741 546.799L105.765 549.665Z" fill="#3F3D56"/>
<path id="Vector_20" d="M96.7706 558.264C96.7706 558.264 93.7728 550.621 88.7764 551.576C83.78 552.531 82.7807 558.264 82.7807 558.264C82.7807 558.264 78.7836 572.594 72.7879 577.371C66.7923 582.148 60.7966 594.568 72.7879 596.479C84.7793 598.39 94.7721 593.613 94.7721 592.657C94.7721 591.702 97.7699 585.97 102.766 585.014C107.763 584.059 111.76 583.104 111.76 579.282C111.76 575.461 108.762 571.639 108.762 571.639C108.762 571.639 107.763 553.517 105.764 555.89C104.382 557.765 103.366 559.864 102.766 562.085L96.7706 558.264Z" fill="#2F2E41"/>
<path id="Vector_21" d="M148.733 541.067L144.736 555.397L154.729 557.308L159.725 552.532L160.724 540.112L148.733 541.067Z" fill="#3F3D56"/>
<path id="Vector_22" d="M147.734 553.487C147.734 553.487 151.731 550.621 153.729 550.621H156.727C156.727 550.621 156.727 543.933 161.724 543.933C166.72 543.933 165.721 548.71 165.721 548.71C165.721 548.71 176.713 564.951 179.711 567.818C182.708 570.684 198.697 579.282 185.706 583.104C172.716 586.925 163.722 586.925 157.727 580.238C157.727 580.238 151.731 577.371 147.734 577.371C143.737 577.371 138.74 575.461 138.74 572.594C138.74 569.728 141.738 563.996 141.738 563.996C141.738 563.996 143.737 546.799 144.736 548.71C145.735 550.621 147.734 553.487 147.734 553.487Z" fill="#2F2E41"/>
<path id="Vector_23" d="M104.765 321.329V352.857C104.765 352.857 93.7727 414.001 93.7727 434.064C93.7727 454.127 76.7849 549.665 84.7792 551.576C92.7734 553.487 111.76 556.353 112.759 553.487C113.758 550.621 120.753 459.859 121.752 458.904C122.752 457.949 143.737 382.474 143.737 382.474L147.734 383.429L149.732 469.413C149.732 469.413 139.739 546.799 144.736 546.799C149.732 546.799 170.717 545.844 170.717 540.112C170.717 534.379 181.709 428.332 181.709 428.332C181.709 428.332 194.7 344.258 189.703 335.66C184.707 327.061 184.707 322.285 184.707 322.285L104.765 321.329Z" fill="#2F2E41"/>
<path id="Vector_24" d="M159.226 198.563C170.263 198.563 179.211 190.008 179.211 179.455C179.211 168.902 170.263 160.347 159.226 160.347C148.188 160.347 139.24 168.902 139.24 179.455C139.24 190.008 148.188 198.563 159.226 198.563Z" fill="#FEE2B3"/>
<path id="Vector_25" d="M100.767 339.482L107.763 349.991L125.749 346.169L112.759 331.839L100.767 339.482Z" fill="#FEE2B3"/>
<path id="Vector_26" d="M145.651 170.179C146.876 169.682 148.293 170.085 149.605 169.873C151.145 169.624 152.524 168.533 154.08 168.671C154.817 168.802 155.533 169.024 156.21 169.332C156.55 169.485 156.918 169.57 157.293 169.583C157.668 169.596 158.042 169.536 158.393 169.407C158.559 169.333 158.707 169.224 158.825 169.089C158.942 168.953 159.027 168.795 159.072 168.624C159.118 168.454 159.123 168.276 159.087 168.103C159.052 167.93 158.977 167.767 158.867 167.626C160.183 167.515 161.428 167.003 162.417 166.165C162.614 165.969 162.843 165.805 163.094 165.679C163.387 165.606 163.693 165.591 163.993 165.636C164.292 165.68 164.579 165.783 164.835 165.938L167.122 166.946C167.637 167.12 168.09 167.43 168.428 167.84C168.7 168.245 168.754 168.79 169.139 169.101C169.63 169.497 170.365 169.303 171.007 169.342C171.589 169.396 172.131 169.653 172.528 170.063C172.926 170.474 173.152 171.01 173.164 171.569C173.155 172.211 172.911 172.998 173.441 173.39C173.749 173.618 174.186 173.582 174.547 173.722C175.482 174.084 175.485 175.328 175.347 176.284C175.209 177.239 175.277 178.499 176.238 178.794C176.914 179.001 177.606 178.559 178.309 178.461C179.369 178.312 180.35 178.946 181.294 179.431C182.237 179.916 183.491 180.243 184.309 179.582C185.07 178.966 185.022 177.84 184.812 176.908C184.512 175.571 184.018 174.281 183.346 173.075C183.097 172.72 182.951 172.309 182.921 171.882C182.978 171.582 183.101 171.297 183.282 171.046C183.462 170.794 183.697 170.582 183.969 170.424C185.126 169.55 186.456 168.67 186.83 167.306C187.105 166.306 186.796 165.251 186.82 164.217C186.849 162.958 187.372 161.705 187.127 160.469C186.682 158.227 184.073 157.149 182.388 155.533C180.074 153.312 179.323 149.76 176.591 148.025C174.406 146.638 171.548 146.803 169.06 146.009C166.326 145.137 164.126 143.133 161.429 142.161C159.958 141.642 158.384 141.441 156.821 141.572C155.259 141.703 153.746 142.163 152.391 142.919C151.587 143.49 150.689 143.928 149.734 144.217C148.93 144.306 148.117 144.297 147.315 144.191C145.722 144.112 144.133 144.425 142.702 145.1C142.155 145.31 141.699 145.692 141.41 146.184C140.927 147.209 141.629 148.812 140.571 149.302C140.077 149.53 139.495 149.311 138.947 149.323C137.881 149.345 137.061 150.232 136.554 151.128C136.158 152.076 135.591 152.95 134.877 153.708C133.574 154.799 131.207 154.979 130.867 156.603C130.861 157.29 130.902 157.977 130.989 158.659C130.891 160.098 129.28 161.191 129.365 162.631C129.461 164.291 131.668 165.103 132.258 166.667C132.707 167.858 132.116 169.146 131.709 170.351C131.303 171.556 131.18 173.101 132.23 173.872C132.642 174.175 133.171 174.299 133.591 174.591C134.678 175.347 134.665 176.872 134.544 178.151C134.474 178.417 134.474 178.695 134.543 178.961C134.612 179.227 134.748 179.472 134.939 179.676C135.118 179.78 135.319 179.846 135.527 179.87C135.735 179.894 135.946 179.875 136.146 179.815C136.799 179.663 137.412 179.386 137.949 179C138.485 178.614 138.934 178.127 139.267 177.57C139.617 177.017 139.687 176.529 140.323 176.235C140.754 176.036 141.278 176.214 141.717 175.956C143.806 174.726 143.087 171.218 145.651 170.179Z" fill="#2F2E41"/>
<g id="shirt">
<path id="Vector_27" d="M154.729 212.416C154.729 212.416 142.238 202.384 141.238 198.563C141.238 198.563 134.743 204.773 134.743 205.728C134.743 206.683 106.763 209.55 99.7685 217.193C92.7735 224.836 86.7778 241.077 86.7778 241.077L103.766 271.649C103.766 271.649 104.765 288.846 104.765 290.757C104.765 292.668 99.7685 323.24 101.767 324.195C103.766 325.151 123.751 334.705 140.739 332.794C157.727 330.883 174.714 328.017 179.711 328.017C184.707 328.017 188.704 329.928 188.704 328.017C188.704 326.106 185.706 322.285 185.706 320.374C185.706 318.463 184.707 313.686 184.707 310.82C184.707 307.954 182.709 303.177 182.709 299.355C182.709 295.534 204.693 243.943 204.693 243.943C204.693 243.943 203.693 227.702 187.705 220.059C171.716 212.416 169.718 209.55 169.718 209.55C169.718 209.55 169.406 203.817 168.563 203.817C167.719 203.817 164.722 212.416 156.727 213.371L154.729 212.416Z" fill="#D92027"/>
<path id="Vector_28" d="M198.697 236.3L204.693 243.943C204.693 243.943 216.684 299.355 214.685 319.418C212.687 339.481 210.688 354.768 210.688 354.768C210.688 354.768 214.685 369.098 211.688 369.098C208.69 369.098 190.703 370.054 190.703 367.188C190.703 364.321 192.701 346.169 192.701 346.169L187.705 304.132L176.713 289.802L198.697 236.3Z" fill="#D92027"/>
<path id="Vector_29" d="M89.7758 238.211L86.7779 241.077C86.7779 241.077 68.791 292.668 74.7866 304.132C80.7822 315.597 92.7736 344.258 96.7707 343.303C100.768 342.348 114.758 333.749 114.758 332.794C114.758 331.838 97.77 305.088 97.77 305.088C97.77 305.088 95.7714 299.355 96.7707 298.4C97.77 297.445 97.77 298.4 96.7707 296.489C95.7714 294.579 95.7714 296.489 97.77 294.579C99.7685 292.668 99.7685 292.668 99.7685 291.712C99.7685 290.757 105.764 266.872 105.764 266.872L89.7758 238.211Z" fill="#D92027"/>
</g>
<path id="Vector_30" d="M105.264 350.468L127.249 343.781L130.246 350.468L106.264 355.245L105.264 350.468Z" fill="#2F2E41"/>
<path id="Vector_31" opacity="0.1" d="M105.264 350.468L127.249 343.781L130.246 350.468L106.264 355.245L105.264 350.468Z" fill="black"/>
<path id="Vector_32" opacity="0.1" d="M135.242 206.206L152.23 219.581L154.229 216.715L135.242 206.206Z" fill="black"/>
<path id="Vector_33" opacity="0.1" d="M169.218 210.027L157.227 216.715L158.226 219.581L169.218 210.027Z" fill="black"/>
</g>
</svg>
