<?xml version="1.0" encoding="UTF-8" standalone="no"?>
<!DOCTYPE svg PUBLIC "-//W3C//DTD SVG 1.1//EN" "http://www.w3.org/Graphics/SVG/1.1/DTD/svg11.dtd">
<svg version="1.1" xmlns="http://www.w3.org/2000/svg" xmlns:xlink="http://www.w3.org/1999/xlink" preserveAspectRatio="xMidYMid meet" viewBox="0 0 640 640" width="640" height="640"><defs><path d="M308.15 28.15C153.51 28.15 28.15 153.51 28.15 308.15C28.15 462.79 153.51 588.15 308.15 588.15C462.79 588.15 588.15 462.79 588.15 308.15C588.15 153.51 462.79 28.15 308.15 28.15Z" id="i1WREZIuMU"></path><path d="M308.15 123.15C244.64 123.15 193.15 174.64 193.15 238.15C193.15 301.67 244.64 353.15 308.15 353.15C371.67 353.15 423.15 301.67 423.15 238.15C423.15 174.64 371.67 123.15 308.15 123.15Z" id="bW9WCn7EY"></path><path d="M308.15 353.15C194.94 353.15 103.15 444.94 103.15 558.15C103.15 671.37 194.94 763.15 308.15 763.15C421.37 763.15 513.15 671.37 513.15 558.15C513.15 444.94 421.37 353.15 308.15 353.15Z" id="kKbuUCiS7"></path></defs><g><g><g><use xlink:href="#i1WREZIuMU" opacity="1" fill="#ffffff" fill-opacity="1"></use><g><use xlink:href="#i1WREZIuMU" opacity="1" fill-opacity="0" stroke="#000000" stroke-width="1" stroke-opacity="0"></use></g></g><g><use xlink:href="#bW9WCn7EY" opacity="1" fill="#ffffff" fill-opacity="1"></use><g><use xlink:href="#bW9WCn7EY" opacity="1" fill-opacity="0" stroke="#000000" stroke-width="1" stroke-opacity="0"></use></g></g><g><use xlink:href="#kKbuUCiS7" opacity="1" fill="#ffffff" fill-opacity="1"></use><g><use xlink:href="#kKbuUCiS7" opacity="1" fill-opacity="0" stroke="#000000" stroke-width="1" stroke-opacity="0"></use></g></g></g></g></svg>